<svg width="20" height="20" viewBox="0 0 20 20" fill="none" xmlns="http://www.w3.org/2000/svg">
<path d="M8.90844 0.179152C9.12723 0.12557 9.36835 0.0630581 9.44426 0.0407323C9.52017 0.0228717 9.83719 0.00501102 10.1587 0.000545855C10.5918 -0.00391931 10.8508 0.0184065 11.1857 0.0898491C11.4313 0.143431 11.7617 0.232734 11.9224 0.295246C12.0832 0.353294 12.3913 0.496179 12.6101 0.612273C12.8244 0.728367 13.1593 0.942695 13.3468 1.09004C13.5343 1.24186 13.8157 1.50977 13.9719 1.69284C14.1327 1.87591 14.3247 2.13043 14.4006 2.25099C14.481 2.37601 14.6194 2.62159 14.7087 2.8002C14.798 2.97434 14.9185 3.27797 14.9855 3.46551C15.048 3.65751 15.1284 4.0058 15.1597 4.23798C15.1954 4.47017 15.2266 4.82292 15.2266 5.01939C15.2266 5.21585 15.1954 5.55967 15.1597 5.77846C15.1195 5.99726 15.048 6.32321 14.9945 6.49289C14.9453 6.66257 14.7935 7.01531 14.664 7.27429C14.5301 7.53327 14.289 7.91281 14.1237 8.11821C13.9541 8.32807 13.6817 8.61831 13.5076 8.76566C13.3334 8.91301 13.0834 9.10054 12.9494 9.18985C12.8155 9.27468 12.5208 9.43096 12.302 9.53366C12.0832 9.63636 11.7394 9.76585 11.5429 9.81497L11.5428 9.81498C11.3464 9.86409 11.1321 9.91767 10.9401 9.95339V14.999L11.4268 15.0124C11.8465 15.0213 11.9358 15.0347 12.043 15.1151C12.11 15.1687 12.2082 15.2669 12.2573 15.3294C12.3243 15.4187 12.3466 15.5214 12.3466 15.7134C12.3466 15.9099 12.3243 16.0037 12.2528 16.1019C12.1993 16.1689 12.101 16.2671 12.0385 16.3162C11.9224 16.4011 11.8465 16.4055 10.2257 16.4055C8.57355 16.4055 8.53337 16.4055 8.40834 16.3118C8.34137 16.2582 8.24313 16.16 8.19402 16.0975C8.12704 16.0081 8.10471 15.9054 8.10471 15.7134C8.10471 15.517 8.12704 15.4232 8.19848 15.325C8.25206 15.258 8.3503 15.1598 8.41281 15.1106C8.51551 15.0347 8.61821 15.0213 9.51124 14.999V9.95339L9.39068 9.9266C9.31924 9.9132 9.10491 9.85962 8.90844 9.81497C8.71197 9.76585 8.36816 9.64083 8.14936 9.53366C7.93057 9.43096 7.63587 9.27468 7.50192 9.18985C7.36796 9.10054 7.11345 8.91301 6.94377 8.76566C6.77409 8.61831 6.50172 8.337 6.34097 8.13607C6.18023 7.9396 5.94804 7.57792 5.81855 7.3368C5.69353 7.09122 5.53724 6.73401 5.47027 6.53754C5.40776 6.34107 5.32738 5.99726 5.29166 5.77846C5.25594 5.55967 5.22468 5.20692 5.22468 4.99706C5.22468 4.7872 5.25594 4.43445 5.29166 4.21566C5.32738 3.9924 5.40776 3.65751 5.47027 3.46551C5.53278 3.27797 5.65334 2.97434 5.74264 2.8002C5.83195 2.62159 5.97037 2.37155 6.05074 2.25099C6.12665 2.13043 6.30972 1.88484 6.45707 1.71517C6.60442 1.54549 6.89465 1.26419 7.10452 1.09898C7.3367 0.911439 7.67606 0.697111 7.99308 0.536365C8.28778 0.39348 8.67625 0.241665 8.90844 0.179152Z" fill="#FFC83D"/>
<path d="M5.40329 11.6189C5.48813 11.5832 5.6578 11.5251 5.78283 11.4939C5.93911 11.4492 6.31418 11.4314 8.08239 11.4269V13.6818L7.80108 13.8247C7.6448 13.9051 7.41708 14.0792 7.27419 14.2265C7.13577 14.3694 6.97056 14.5927 6.90805 14.7177C6.84107 14.8472 6.75623 15.0705 6.72051 15.2089C6.68479 15.3518 6.65354 15.5795 6.65354 15.7134C6.65354 15.8474 6.68479 16.0796 6.72498 16.2269C6.7607 16.3743 6.85893 16.6154 6.93484 16.7583C7.01521 16.9056 7.19382 17.1289 7.34563 17.2673C7.49299 17.4013 7.70731 17.5576 7.82341 17.6156C7.94397 17.6737 8.15383 17.754 8.29225 17.7897C8.50211 17.8433 8.87718 17.8567 10.2257 17.8567C11.5741 17.8567 11.9492 17.8433 12.1546 17.7897C12.2975 17.754 12.5208 17.6692 12.6458 17.6022C12.7753 17.5397 12.9941 17.379 13.128 17.2539C13.262 17.1244 13.4361 16.9012 13.5165 16.7583C13.5924 16.6109 13.6906 16.3743 13.7263 16.2269C13.7665 16.0796 13.7978 15.8474 13.7978 15.7134C13.7978 15.5795 13.7665 15.3518 13.7308 15.2089C13.6951 15.0705 13.6103 14.8472 13.5433 14.7177C13.4808 14.5927 13.3156 14.3694 13.1771 14.2265C13.0342 14.0792 12.8065 13.9051 12.3689 13.6818V11.4269L13.4942 11.4403C14.4586 11.4537 14.6551 11.4671 14.8471 11.5385C14.9677 11.5832 15.1775 11.6859 15.3026 11.7707C15.432 11.8511 15.6285 12.0118 15.7401 12.1279C15.8518 12.2485 15.9991 12.4628 16.0706 12.6102C16.142 12.7575 16.5126 13.9274 16.8966 15.2089C17.4726 17.1378 17.5932 17.5933 17.5932 17.821C17.5932 17.9773 17.5619 18.2184 17.5262 18.3568C17.4905 18.4997 17.4056 18.723 17.3387 18.848C17.2762 18.9775 17.1199 19.1918 16.9948 19.3258C16.8698 19.4552 16.6868 19.6115 16.5885 19.6696C16.4903 19.7276 16.2804 19.8259 15.8294 20H4.62189L4.33165 19.8884C4.17091 19.8259 3.96104 19.7276 3.86281 19.6696C3.76458 19.6115 3.5815 19.4552 3.45648 19.3258C3.33146 19.1918 3.17964 18.9819 3.11713 18.8614C3.05462 18.7364 2.96531 18.5176 2.92513 18.3702C2.86708 18.1782 2.85368 18.0041 2.86708 17.7674C2.88494 17.504 3.03676 16.9458 3.57257 15.1553C3.94765 13.9006 4.3004 12.7754 4.35844 12.6548C4.41202 12.5298 4.53258 12.3422 4.62189 12.2306C4.71566 12.119 4.89426 11.9538 5.01929 11.8555C5.14431 11.7618 5.31845 11.6546 5.40329 11.6189Z" fill="#FFC83D"/>
</svg>
