<svg width="16" height="16" viewBox="0 0 16 16" fill="none" xmlns="http://www.w3.org/2000/svg">
<path d="M4.10938 0.48574C4.2625 0.46699 4.43125 0.445115 4.48438 0.438865C4.5375 0.43574 4.60625 0.426365 4.64062 0.426365C4.675 0.42324 4.88438 0.44199 5.10938 0.470115C5.33437 0.495115 5.65625 0.551365 5.82812 0.595115C6 0.638865 6.24687 0.71699 6.375 0.770115C6.50313 0.820115 6.71562 0.920115 6.84375 0.988865C6.97188 1.06074 7.17812 1.18261 7.29688 1.26386C7.41563 1.34511 7.62187 1.50761 7.75 1.62011C7.87813 1.73261 7.99062 1.82636 8 1.82636C8.00937 1.82636 8.12187 1.73261 8.25 1.62011C8.37813 1.50761 8.58125 1.34511 8.70312 1.26386C8.825 1.18261 9.02812 1.06074 9.15625 0.988865C9.28438 0.920115 9.49687 0.820115 9.625 0.770115C9.75313 0.71699 10 0.638865 10.1719 0.595115C10.3438 0.551365 10.675 0.495115 10.9062 0.46699C11.1375 0.44199 11.3969 0.426365 11.4844 0.43574C11.5688 0.445115 11.7594 0.470115 11.9062 0.48574C12.0531 0.50449 12.2844 0.54824 12.4219 0.57949C12.5594 0.613865 12.7844 0.682615 12.9219 0.72949C13.0594 0.77949 13.2781 0.870115 13.4062 0.93574C13.5344 1.00136 13.7531 1.12636 13.8906 1.21699C14.0281 1.30761 14.2531 1.47949 14.3875 1.59511C14.525 1.71386 14.7344 1.92324 14.8531 2.06074C14.9719 2.19824 15.1281 2.40137 15.2031 2.51386C15.2781 2.62636 15.4031 2.83574 15.4812 2.98261C15.5594 3.12949 15.6781 3.41699 15.7469 3.62324C15.8156 3.82949 15.9 4.16386 15.9375 4.36699C15.975 4.59824 16 4.87011 16 5.10761C16 5.31387 15.9781 5.62637 15.9531 5.80449C15.925 5.97949 15.875 6.25137 15.8375 6.40449C15.8031 6.55761 15.725 6.82636 15.6656 6.99824C15.6062 7.17011 15.4937 7.45136 15.4187 7.62324C15.3438 7.79511 15.1937 8.08886 15.0875 8.27949C14.9844 8.47011 14.7969 8.77011 14.6781 8.95136C14.5563 9.13261 14.3375 9.44199 14.1844 9.63886C14.0344 9.83574 13.7094 10.2232 13.4625 10.4982C13.2125 10.7732 12.8 11.2014 12.5437 11.4482C12.2875 11.6951 11.8938 12.0545 11.6719 12.2482C11.45 12.4389 11.1187 12.717 10.9375 12.8639C10.7563 13.0107 10.35 13.3232 10.0312 13.5576C9.7125 13.7951 9.125 14.2076 8 14.967L7.27187 14.4764C6.875 14.2076 6.2875 13.7951 5.96875 13.5576C5.65 13.3232 5.24375 13.0107 5.0625 12.8639C4.88461 12.7197 4.56523 12.4491 4.34073 12.2589L4.32812 12.2482C4.10313 12.0545 3.7125 11.6951 3.45625 11.4482C3.2 11.2014 2.7875 10.7732 2.5375 10.4982C2.29062 10.2232 1.96562 9.83574 1.81562 9.63886C1.6625 9.44199 1.44375 9.13261 1.32187 8.95136C1.20312 8.77011 1.03125 8.49512 0.94375 8.34199C0.85625 8.18887 0.721875 7.92636 0.646875 7.76386C0.56875 7.60137 0.45625 7.32636 0.390625 7.15449C0.328125 6.98261 0.240625 6.71386 0.2 6.56074C0.159375 6.40762 0.096875 6.11074 0.0625 5.90449C0.025 5.66699 0 5.38574 0 5.13886C0 4.89199 0.021875 4.61074 0.0625 4.37324C0.1 4.16699 0.184375 3.82949 0.253125 3.62324C0.321875 3.41699 0.440625 3.12949 0.51875 2.98261C0.596875 2.83574 0.721875 2.62636 0.796875 2.51386C0.871875 2.40137 1.02813 2.19824 1.14688 2.06074C1.26562 1.92324 1.475 1.71386 1.6125 1.59511C1.74687 1.47949 1.97187 1.30761 2.10938 1.21699C2.24688 1.12636 2.46563 1.00136 2.59375 0.93574C2.72187 0.870115 2.94062 0.77949 3.07812 0.72949C3.21563 0.682615 3.44062 0.613865 3.57812 0.57949C3.71563 0.545115 3.95312 0.50449 4.10938 0.48574Z" fill="#A5B8EF"/>
</svg>
