<svg width="16" height="16" viewBox="0 0 16 16" fill="none" xmlns="http://www.w3.org/2000/svg">
<path d="M13.1519 2.87269C13.2941 2.49648 13.4048 2.25306 13.449 2.21828C13.4838 2.18667 13.5376 2.16138 13.5628 2.16138C13.5881 2.16138 13.6387 2.18667 13.6735 2.21512C13.7083 2.24673 13.7778 2.37951 13.8284 2.50913C13.879 2.63875 13.9865 2.91695 14.0655 3.1256C14.1477 3.34057 14.2647 3.58084 14.3374 3.67568C14.4069 3.77052 14.5271 3.90013 14.6061 3.96336C14.6851 4.02343 14.9349 4.16569 15.1593 4.27318C15.387 4.38383 15.5956 4.49764 15.6272 4.52609C15.6588 4.55454 15.6841 4.61461 15.6841 4.65887C15.6841 4.70312 15.6494 4.76635 15.6114 4.80429C15.5703 4.83906 15.3459 4.96236 15.1119 5.07617C14.7768 5.2374 14.6472 5.31959 14.5113 5.45553C14.4164 5.55037 14.2931 5.7116 14.2362 5.81593C14.1825 5.91709 14.0497 6.23639 13.9422 6.52408C13.8347 6.81176 13.7241 7.071 13.6956 7.10261C13.6672 7.13422 13.6071 7.15952 13.5628 7.15952C13.5186 7.15952 13.4585 7.13422 13.4301 7.10261C13.4016 7.071 13.2846 6.80228 13.174 6.50827C13.0633 6.21426 12.9401 5.90761 12.899 5.82858C12.8579 5.74954 12.7409 5.59463 12.6334 5.48715C12.4658 5.31327 12.3773 5.2532 11.9663 5.04772C11.7071 4.9181 11.4827 4.7948 11.47 4.77584C11.4574 4.75371 11.4447 4.70312 11.4447 4.65887C11.4447 4.61461 11.4669 4.5577 11.4985 4.52609C11.5301 4.49764 11.7482 4.38066 11.9822 4.26685C12.2161 4.15305 12.4722 4.00446 12.5512 3.93807C12.6302 3.87168 12.744 3.7389 12.8104 3.64406C12.8737 3.54606 13.0222 3.21412 13.1519 2.87269Z" fill="#A5B8EF"/>
<path d="M5.55824 3.05605C5.58037 3.01495 5.63411 2.96121 5.68469 2.93591C5.73843 2.9043 5.82063 2.89166 5.91231 2.90114C6.00399 2.91062 6.07986 2.94224 6.12728 2.98966C6.17154 3.03392 6.39916 3.59664 6.73427 4.48499C7.03144 5.26901 7.33493 6.03723 7.40764 6.19213C7.48352 6.34704 7.62262 6.59047 7.7143 6.72957C7.80914 6.86867 7.97353 7.08364 8.07785 7.20378C8.18534 7.32391 8.38451 7.51675 8.52361 7.6274C8.65955 7.73805 8.87136 7.89612 8.99465 7.97515C9.11795 8.05102 9.66487 8.33555 10.2118 8.6011C10.7587 8.86666 11.2456 9.11325 11.2961 9.14802C11.3436 9.1828 11.3973 9.26499 11.4163 9.33138C11.4479 9.42939 11.4416 9.46732 11.3941 9.57165C11.3372 9.69178 11.293 9.71391 10.196 10.2545C9.40563 10.6465 8.97252 10.8773 8.77652 11.0164C8.62161 11.127 8.35922 11.361 8.19166 11.5349C8.02411 11.7087 7.80598 11.9711 7.70797 12.1197C7.61313 12.2683 7.48035 12.4864 7.42029 12.6097C7.36022 12.733 7.05989 13.4981 6.75324 14.3169C6.298 15.5308 6.17787 15.8185 6.10199 15.8881C6.04825 15.9387 5.96921 15.9861 5.92179 15.9956C5.86489 16.0082 5.79534 15.9924 5.72579 15.9576C5.66888 15.9229 5.6025 15.8691 5.58037 15.8343C5.55507 15.7996 5.28952 15.1104 4.98603 14.3011C4.68253 13.4918 4.38853 12.7393 4.33162 12.6255C4.27472 12.5117 4.16407 12.322 4.08503 12.1988C4.00916 12.0755 3.85425 11.87 3.74677 11.7404C3.63928 11.6107 3.44644 11.4116 3.31682 11.3009C3.1872 11.1903 2.97539 11.0259 2.84577 10.9374C2.71616 10.852 2.12498 10.5422 1.5338 10.2545C0.756102 9.87198 0.439965 9.70126 0.386221 9.63487C0.3388 9.57481 0.313509 9.5021 0.316671 9.42622C0.316671 9.34087 0.341962 9.27764 0.405189 9.21125C0.462094 9.14486 0.813007 8.95834 1.48638 8.62956C2.0333 8.364 2.56125 8.09845 2.65609 8.04154C2.75093 7.98147 2.93113 7.86134 3.05126 7.76966C3.17456 7.67798 3.40218 7.47249 3.56024 7.31126C3.71831 7.14687 3.93961 6.87183 4.05658 6.69795C4.17039 6.52408 4.30949 6.28065 4.3664 6.16052C4.42014 6.04039 4.70466 5.30695 4.99551 4.53241C5.28636 3.75787 5.53927 3.09398 5.55824 3.05605Z" fill="#A5B8EF"/>
</svg>
