<svg width="16" height="16" viewBox="0 0 16 16" fill="none" xmlns="http://www.w3.org/2000/svg">
<path fill-rule="evenodd" clip-rule="evenodd" d="M7.28346 0L9.20472 0.00314961L9.30866 0.0787402C9.3622 0.122835 9.4315 0.198425 9.45669 0.251969C9.48189 0.305512 9.50394 0.384252 9.50394 0.434646C9.50394 0.48189 9.32126 0.966929 9.09449 1.51181C8.86772 2.05669 8.65669 2.55118 8.62835 2.61102C8.6 2.67087 8.53071 2.74646 8.48031 2.77795C8.42677 2.80945 8.32598 2.83465 8.24409 2.83465C8.1622 2.83465 8.06142 2.80945 8.00787 2.7748C7.95433 2.74331 7.88819 2.66772 7.85984 2.61102C7.8315 2.55118 7.62047 2.05669 7.3937 1.51181C7.16693 0.966929 6.98425 0.48189 6.98425 0.431496C6.98425 0.384252 7.0063 0.302362 7.0315 0.251969C7.05669 0.198425 7.12598 0.122835 7.18268 0.0787402L7.28346 0ZM1.40945 6.4C1.42205 6.4063 2.47402 6.84094 6.05827 8.32441L6.05512 9.1874L3.74331 10.1449C2.47402 10.6709 1.4252 11.1055 1.4126 11.1118C1.4 11.115 1.34646 10.9606 1.28976 10.7654C1.23622 10.5701 1.17323 10.337 1.15433 10.252C1.13543 10.1638 1.09449 9.90866 1.05984 9.68504C1.02205 9.42362 1 9.09921 1 8.7874C1 8.51968 1.02205 8.12913 1.04724 7.92126C1.07559 7.71339 1.11654 7.44252 1.14173 7.32283C1.16693 7.2 1.23307 6.94173 1.28661 6.74646C1.34331 6.55118 1.39685 6.3937 1.40945 6.4ZM15.0913 6.39685C15.1071 6.3937 15.1606 6.55433 15.2079 6.74646C15.2551 6.94173 15.3118 7.1685 15.3276 7.25039C15.3465 7.33543 15.3906 7.5937 15.4252 7.82677C15.4661 8.11339 15.485 8.4126 15.485 8.74646C15.485 9.06457 15.463 9.39528 15.4252 9.66929C15.3906 9.90236 15.3496 10.1638 15.3307 10.252C15.3118 10.337 15.2488 10.5701 15.1953 10.7654C15.1386 10.9606 15.085 11.115 15.0756 11.1118C15.063 11.1055 14.0142 10.6709 10.4331 9.18425L10.4142 8.32441L12.7386 7.36378C14.0173 6.83465 15.0756 6.4 15.0913 6.39685ZM7.8126 10.9449H8.67244L9.62992 13.2567C10.1591 14.526 10.5937 15.5748 10.5969 15.5874C10.6032 15.5969 10.4457 15.6535 10.2504 15.7071C10.0551 15.7638 9.74646 15.8394 9.56693 15.8709C9.38425 15.9024 9.14173 15.9465 9.0315 15.9654C8.91811 15.9843 8.56535 16 8.25039 16C7.87874 16 7.56693 15.9811 7.3685 15.9496C7.19843 15.9244 6.95591 15.8803 6.82677 15.8551C6.69449 15.8299 6.42992 15.7638 6.23465 15.7071C6.03937 15.6504 5.88189 15.5969 5.88819 15.5874C5.89134 15.578 6.32598 14.5291 6.85512 13.2567L7.8126 10.9449ZM6.47717 1.73228C6.50866 1.73228 6.58425 1.87717 6.71339 2.17953C6.81417 2.42835 6.94961 2.74331 7.0126 2.88189C7.07559 3.02362 7.18583 3.2 7.26772 3.28504C7.34331 3.37008 7.47244 3.47717 7.54803 3.52756C7.62677 3.5748 7.7685 3.6378 7.86299 3.66614C7.96063 3.69449 8.13071 3.71654 8.24094 3.71654C8.35433 3.71654 8.52441 3.69449 8.6189 3.66614C8.71654 3.6378 8.85827 3.5748 8.93386 3.52756C9.0126 3.47717 9.13858 3.37008 9.21732 3.28504C9.29606 3.2 9.4063 3.02362 9.47244 2.88189C9.53228 2.74331 9.66772 2.4252 9.95748 1.72598L10.052 1.74488C10.1055 1.75748 10.2441 1.79213 10.3606 1.82677C10.4772 1.86142 10.5717 1.90551 10.5717 1.92756C10.5748 1.94961 10.1465 3.00157 8.66929 6.56693H7.8126L6.85197 4.25512C6.32598 2.98268 5.89134 1.93386 5.88504 1.92441C5.88189 1.91496 6.00157 1.86772 6.15276 1.82047C6.30709 1.77323 6.45197 1.73543 6.47717 1.73228ZM5.04409 2.26772C5.06299 2.26772 5.51024 3.31024 6.03622 4.58583C6.56535 5.86457 6.9937 6.90709 6.9937 6.91024C6.99055 6.91024 6.85512 7.04882 6.39528 7.51181L4.09921 6.56063C2.83307 6.03465 1.7874 5.60315 1.7685 5.59685C1.75276 5.59055 1.7685 5.51811 1.8126 5.42992C1.85354 5.34488 1.95748 5.15591 2.04567 5.00787C2.13701 4.85984 2.32913 4.57638 2.48031 4.37795C2.6315 4.17953 2.92126 3.84882 3.12598 3.64094C3.33386 3.43622 3.63622 3.16535 3.8 3.03937C3.96693 2.91339 4.2 2.74646 4.31968 2.66772C4.44252 2.58898 4.64724 2.46929 4.77638 2.39685C4.90866 2.32756 5.02835 2.26772 5.04409 2.26772ZM11.4378 2.26772C11.4535 2.26772 11.5764 2.32756 11.7055 2.39685C11.8378 2.46929 12.0551 2.59843 12.1937 2.68661C12.3323 2.77795 12.5811 2.95748 12.7449 3.08661C12.9118 3.2189 13.1984 3.48031 13.3874 3.66929C13.5764 3.86142 13.8535 4.17953 14.0016 4.37795C14.1528 4.57638 14.348 4.85984 14.4362 5.00787C14.5244 5.15591 14.6315 5.34488 14.6724 5.42992C14.7134 5.51811 14.7323 5.59055 14.7134 5.59685C14.6976 5.60315 13.6488 6.0378 10.0898 7.51181L9.7937 7.2126C9.62992 7.04882 9.49449 6.90709 9.49134 6.90394C9.48819 6.89764 9.91654 5.85197 10.4457 4.57953C10.9717 3.30709 11.4189 2.26772 11.4378 2.26772ZM8.2252 7.43307C8.31339 7.43307 8.46772 7.45512 8.57165 7.48031C8.67559 7.50866 8.83622 7.5748 8.93071 7.6315C9.02205 7.68504 9.15433 7.79528 9.22362 7.87402C9.29291 7.95276 9.38425 8.08504 9.4252 8.17323C9.46929 8.25827 9.51969 8.42205 9.54173 8.53543C9.57008 8.69291 9.57008 8.79055 9.54173 8.96063C9.51969 9.08031 9.46614 9.25984 9.4189 9.35433C9.37165 9.44882 9.26142 9.6 9.17323 9.68504C9.08504 9.77323 8.93701 9.88346 8.83937 9.93071C8.74488 9.97795 8.5685 10.0346 8.44567 10.0535C8.27559 10.0819 8.17795 10.0819 8.02047 10.0535C7.91024 10.0346 7.74016 9.97795 7.64252 9.93071C7.54803 9.88346 7.4 9.77323 7.31181 9.68504C7.22362 9.6 7.11339 9.44882 7.06614 9.35433C7.0189 9.25984 6.9622 9.08031 6.94331 8.96063C6.91496 8.79055 6.91496 8.69291 6.94331 8.53543C6.9622 8.42205 7.01575 8.25827 7.05669 8.17323C7.10079 8.08504 7.19213 7.95276 7.25827 7.87402C7.32756 7.79528 7.45984 7.68504 7.55433 7.6315C7.64567 7.5748 7.8 7.50866 7.89449 7.48346C7.99213 7.45827 8.14016 7.43622 8.2252 7.43307ZM7.86299 8.54173C7.82835 8.59843 7.8 8.69606 7.8 8.75591C7.8 8.81575 7.82835 8.91024 7.86299 8.96693C7.89764 9.02362 7.97323 9.09921 8.02992 9.13386C8.08661 9.1685 8.1748 9.19685 8.2252 9.19685C8.27874 9.19685 8.37008 9.17165 8.42992 9.14016C8.48661 9.11181 8.5622 9.05197 8.59685 9.00787C8.62835 8.96378 8.66299 8.86614 8.66929 8.7874C8.68189 8.68032 8.66929 8.62047 8.62205 8.54173C8.5874 8.48504 8.51181 8.4126 8.45512 8.37795C8.39843 8.34331 8.30394 8.31496 8.24094 8.31496C8.1811 8.31496 8.08661 8.34331 8.02992 8.37795C7.97323 8.4126 7.89764 8.48504 7.86299 8.54173ZM6.37638 10L6.67244 10.2866C6.83307 10.4472 6.97165 10.589 6.97795 10.6047C6.9811 10.6173 6.55591 11.6693 6.03307 12.9386C5.17008 15.0236 5.06929 15.2441 5.0126 15.2283C4.97795 15.2189 4.79528 15.1244 4.60945 15.0142C4.42047 14.9071 4.09291 14.6898 3.88504 14.5323C3.67402 14.3717 3.33386 14.0756 3.12598 13.8709C2.92126 13.663 2.6315 13.3323 2.48031 13.1339C2.32913 12.9354 2.13701 12.652 2.04567 12.5039C1.95748 12.3559 1.85354 12.1669 1.8126 12.0819C1.7685 11.9937 1.75276 11.9213 1.7685 11.915C1.7874 11.9087 2.82992 11.474 4.08976 10.9512L6.37638 10ZM10.0961 10.0031C10.1055 10.0063 11.148 10.4378 12.4142 10.9606C13.6772 11.4866 14.7197 11.9213 14.7291 11.9276C14.7386 11.937 14.6882 12.0504 14.6189 12.1827C14.5496 12.315 14.3984 12.5638 14.2819 12.7402C14.1654 12.9134 13.9795 13.1685 13.8693 13.3071C13.7559 13.4457 13.5449 13.6819 13.4 13.8268C13.2551 13.9748 13.0031 14.2079 12.8394 14.3465C12.6756 14.4819 12.3921 14.6929 12.2094 14.8094C12.0268 14.9291 11.7748 15.0803 11.6457 15.1433C11.5165 15.2094 11.4063 15.2472 11.4 15.2283C11.3937 15.2126 10.9591 14.1638 9.48504 10.6047L9.7811 10.3024C9.94488 10.1354 10.0866 10 10.0961 10.0031Z" fill="#A5B8EF"/>
</svg>
