<svg width="20" height="20" viewBox="0 0 20 20" fill="none" xmlns="http://www.w3.org/2000/svg">
<path fill-rule="evenodd" clip-rule="evenodd" d="M9.89709 0.000379922C10.0164 -0.00359694 10.3942 0.0242411 10.7322 0.0560559C11.0703 0.0918477 11.5435 0.151501 11.7861 0.195246C12.0287 0.238991 12.4105 0.326482 12.6411 0.390112C12.8718 0.453742 13.2019 0.561117 13.3768 0.624747C13.5518 0.692353 13.8461 0.811659 14.033 0.891196C14.2199 0.97471 14.55 1.14174 14.7687 1.26104C14.9875 1.38035 15.3175 1.58317 15.5045 1.70645C15.6914 1.82973 16.0215 2.0763 16.2402 2.25128C16.4589 2.42626 16.8606 2.80406 17.135 3.08244C17.4094 3.3648 17.7593 3.76646 17.9184 3.97326C18.0735 4.18006 18.3042 4.51411 18.4275 4.70898C18.5507 4.90782 18.7854 5.33732 18.9444 5.66343C19.1075 5.99351 19.3103 6.4747 19.4018 6.73718C19.4932 6.99965 19.6165 7.42915 19.6802 7.69162C19.7438 7.9541 19.8313 8.42336 19.875 8.73754C19.9347 9.12727 19.9585 9.50905 19.9585 9.97036C19.9585 10.3362 19.9307 10.8492 19.8989 11.1117C19.8631 11.3742 19.7995 11.7759 19.7557 12.0065C19.708 12.2372 19.6086 12.6309 19.533 12.8814C19.4575 13.132 19.3143 13.5336 19.2188 13.7762C19.1194 14.0188 18.9405 14.4006 18.8172 14.6312C18.6979 14.8619 18.4831 15.2278 18.34 15.4465C18.1968 15.6652 17.9622 15.9953 17.815 16.1822C17.6718 16.3691 17.3139 16.7628 17.0157 17.0611C16.7214 17.3554 16.3277 17.7173 16.1408 17.8605C15.9538 18.0036 15.6317 18.2303 15.4249 18.3655C15.2181 18.5047 14.904 18.6916 14.729 18.7871C14.554 18.8825 14.2279 19.0416 14.0012 19.141C13.7785 19.2444 13.3848 19.3955 13.1303 19.479C12.8718 19.5665 12.4542 19.6819 12.2037 19.7375C11.9531 19.7932 11.4958 19.8767 11.1896 19.9205C10.8078 19.9761 10.426 20 9.97663 20C9.52724 20 9.14546 19.9761 8.76369 19.9205C8.45747 19.8767 8.00013 19.7932 7.74959 19.7375C7.49904 19.6819 7.08147 19.5665 6.82298 19.479C6.56846 19.3955 6.15487 19.2325 5.91228 19.1251C5.66571 19.0137 5.29984 18.8308 5.10498 18.7195C4.91011 18.6081 4.57605 18.4013 4.36926 18.2581C4.16246 18.115 3.86817 17.9002 3.71307 17.7769C3.56195 17.6537 3.25971 17.3832 3.04099 17.1764C2.82624 16.9696 2.50411 16.6276 2.3331 16.4208C2.15812 16.214 1.86781 15.8203 1.68488 15.5459C1.50194 15.2715 1.25538 14.8619 1.13209 14.6312C1.01279 14.4006 0.833829 14.0188 0.734408 13.7762C0.638963 13.5336 0.495796 13.132 0.420236 12.8814C0.344675 12.6309 0.245254 12.2372 0.197532 12.0065C0.153786 11.7759 0.0861796 11.3662 0.0503879 11.0918C0.00266561 10.714 -0.00926496 10.4078 0.00664247 9.79936C0.018573 9.3619 0.0543648 8.81707 0.0901565 8.58642C0.129925 8.35576 0.205485 7.97398 0.261161 7.73139C0.316837 7.4888 0.444097 7.06328 0.539542 6.77695C0.634986 6.49061 0.837806 6.00941 0.98495 5.70319C1.13209 5.39698 1.36673 4.96748 1.50194 4.74875C1.64113 4.53002 1.87974 4.18006 2.03484 3.97326C2.19391 3.76646 2.54388 3.3648 2.81828 3.08244C3.09268 2.80406 3.49435 2.42626 3.71307 2.25128C3.9318 2.0763 4.26188 1.82973 4.44879 1.70645C4.63571 1.58317 4.86636 1.43603 4.96579 1.38035C5.06521 1.32467 5.33961 1.18151 5.5822 1.05822C5.82479 0.938918 6.19066 0.775867 6.39745 0.692353C6.60425 0.612816 6.98205 0.485557 7.23259 0.413973C7.48314 0.34239 7.90468 0.246945 8.16716 0.199223C8.42963 0.151501 8.87504 0.0878708 9.16137 0.0600328C9.44771 0.0282179 9.77778 0.00435678 9.89709 0.000379922ZM9.34033 3.2972C9.23295 3.40059 9.13751 3.54376 9.10967 3.63523C9.08581 3.72272 9.06195 3.96133 9.06195 4.16017V4.53002C8.89094 4.56581 8.7438 4.60558 8.6245 4.6374C8.50519 4.67319 8.27055 4.7567 8.1075 4.82431C7.94445 4.89589 7.68198 5.03111 7.53086 5.1345C7.37974 5.23393 7.13317 5.4447 6.98603 5.5998C6.79912 5.79466 6.66788 5.98158 6.55653 6.20826C6.46904 6.39119 6.36962 6.66559 6.3378 6.81672C6.30599 6.96784 6.27815 7.23429 6.27815 7.40131C6.27815 7.57232 6.30599 7.8507 6.3378 8.01773C6.37757 8.20464 6.47301 8.47506 6.58437 8.70572C6.73946 9.02387 6.82298 9.1392 7.10931 9.42156C7.32406 9.63233 7.57063 9.8272 7.76947 9.9465C7.94445 10.0459 8.19499 10.1732 8.32623 10.2249C8.45747 10.2806 8.7438 10.368 8.96253 10.4277C9.18126 10.4834 9.57496 10.5589 9.83744 10.5947C10.0999 10.6305 10.4499 10.7061 10.6129 10.7578C10.776 10.8135 10.9828 10.9009 11.0703 10.9487C11.1578 11.0004 11.3089 11.1316 11.4083 11.239C11.5077 11.3464 11.631 11.5213 11.6827 11.6287C11.7344 11.7401 11.7941 11.9349 11.8179 12.0662C11.8537 12.261 11.8497 12.3565 11.7901 12.5832C11.7503 12.7462 11.6708 12.9291 11.6032 13.0206C11.5395 13.1081 11.4083 13.2393 11.3168 13.3109C11.2254 13.3825 11.0623 13.4859 10.951 13.5376C10.8396 13.5893 10.6368 13.6609 10.4936 13.6927C10.3505 13.7285 10.0721 13.7563 9.87721 13.7563C9.68234 13.7563 9.36419 13.7285 9.16932 13.6967C8.97844 13.6649 8.6921 13.5893 8.537 13.5297C8.34612 13.4581 8.11943 13.3229 7.86889 13.1359C7.6621 12.9769 7.42348 12.8218 7.34395 12.786C7.26043 12.7502 7.11329 12.7223 7.01387 12.7223C6.91445 12.7223 6.79116 12.7383 6.73549 12.7621C6.67981 12.786 6.56448 12.8695 6.47699 12.949C6.37757 13.0405 6.29008 13.1717 6.25429 13.2791C6.22247 13.3785 6.19861 13.5018 6.19861 13.5575C6.19861 13.6132 6.2185 13.7285 6.24236 13.816C6.27417 13.9194 6.37359 14.0626 6.53267 14.2256C6.6639 14.3648 6.89058 14.5557 7.03375 14.6471C7.17692 14.7426 7.41951 14.8818 7.57063 14.9613C7.72175 15.0369 7.96434 15.1403 8.1075 15.188C8.25067 15.2357 8.51712 15.3033 8.70403 15.3431L9.04207 15.4107C9.07786 16.1027 9.10569 16.2816 9.14944 16.3612C9.18523 16.4248 9.27272 16.5362 9.34828 16.6077C9.41987 16.6793 9.54713 16.7628 9.63064 16.7947C9.71018 16.8304 9.86925 16.8583 9.97663 16.8583C10.088 16.8583 10.2431 16.8304 10.3266 16.7947C10.4061 16.7628 10.5254 16.6873 10.5851 16.6276C10.6487 16.568 10.7362 16.4487 10.7839 16.3612C10.8476 16.2379 10.8674 16.1067 10.8834 15.7845L10.8993 15.367C11.3089 15.2596 11.5634 15.1681 11.7264 15.0965C11.8895 15.025 12.148 14.8858 12.3031 14.7824C12.4582 14.6829 12.6968 14.4761 12.84 14.325C12.9831 14.1699 13.1661 13.9313 13.2496 13.7921C13.3331 13.6529 13.4444 13.3944 13.5001 13.2195C13.5836 12.9729 13.6115 12.79 13.6274 12.4042C13.6393 12.0304 13.6274 11.8236 13.5797 11.5691C13.5359 11.3623 13.4444 11.0879 13.3331 10.8612C13.2058 10.5908 13.0865 10.4197 12.8917 10.213C12.7405 10.0579 12.4781 9.83515 12.3031 9.71584C12.1281 9.60052 11.8497 9.44939 11.6867 9.38179C11.5236 9.31418 11.2651 9.22669 11.11 9.18692C10.9549 9.14318 10.5533 9.07159 10.2152 9.02387C9.87721 8.97615 9.43577 8.88468 9.24091 8.82105C9.03411 8.75742 8.79152 8.64607 8.66824 8.55858C8.54893 8.47506 8.38986 8.3319 8.31828 8.23645C8.24669 8.14499 8.16716 8.00182 8.1433 7.9183C8.12341 7.83877 8.0916 7.66378 8.07967 7.53255C8.06376 7.37347 8.07701 7.22103 8.11943 7.07521C8.1592 6.94 8.24272 6.78888 8.33816 6.67752C8.42167 6.5781 8.58075 6.45084 8.68812 6.39119C8.7955 6.33154 9.02616 6.24802 9.20114 6.2003C9.42782 6.14463 9.64257 6.12076 9.93686 6.12076C10.1675 6.12076 10.4777 6.1486 10.6328 6.18439C10.7879 6.21621 11.0106 6.29575 11.1299 6.35938C11.2492 6.42698 11.4918 6.62185 11.6668 6.80081C11.8418 6.97977 12.0525 7.15872 12.1361 7.19849C12.2156 7.23826 12.3508 7.27405 12.4343 7.27405C12.5139 7.27405 12.6729 7.23031 12.7803 7.18259C12.8917 7.13089 13.0388 7.01954 13.1104 6.93204C13.182 6.84853 13.2575 6.70934 13.2774 6.62583C13.3013 6.54629 13.3053 6.41108 13.2933 6.32756C13.2814 6.24802 13.2297 6.10883 13.178 6.02134C13.1303 5.93385 12.9553 5.7191 12.7962 5.5481C12.6332 5.37312 12.3786 5.15041 12.2236 5.04701C12.0685 4.94759 11.81 4.8084 11.6469 4.7408C11.4839 4.67319 11.2452 4.59365 11.122 4.56581L10.8993 4.51014C10.8714 3.70284 10.8635 3.65511 10.7481 3.47218C10.6726 3.35287 10.5572 3.23357 10.434 3.15801C10.2868 3.06654 10.1874 3.0387 10.0204 3.03075C9.89709 3.02677 9.73404 3.04268 9.65848 3.07051C9.58292 3.09438 9.43975 3.19777 9.34033 3.2972Z" fill="#FFC83D"/>
</svg>
