<svg width="20" height="20" viewBox="0 0 20 20" fill="none" xmlns="http://www.w3.org/2000/svg">
<path d="M10 5.83337C10 5.83337 10 5.83337 9.24 4.83337C8.36 3.67337 7.06 2.83337 5.5 2.83337C3.01 2.83337 1 4.84337 1 7.33337C1 8.26337 1.28 9.12337 1.76 9.83337C2.57 11.0434 10 18.8334 10 18.8334M10 5.83337C10 5.83337 10 5.83337 10.76 4.83337C11.64 3.67337 12.94 2.83337 14.5 2.83337C16.99 2.83337 19 4.84337 19 7.33337C19 8.26337 18.72 9.12337 18.24 9.83337C17.43 11.0434 10 18.8334 10 18.8334" stroke="white" stroke-width="2" stroke-linecap="round" stroke-linejoin="round"/>
</svg>
