<svg width="42" height="20" viewBox="0 0 42 20" fill="none" xmlns="http://www.w3.org/2000/svg">
<path fill-rule="evenodd" clip-rule="evenodd" d="M1.00049 4.85014C1.00049 3.86016 1.81047 3.05017 2.80046 3.05017H17.2002C17.6776 3.05017 18.1354 3.23981 18.473 3.57737C18.8105 3.91493 19.0002 4.37276 19.0002 4.85014V15.6499C19.0002 16.1273 18.8105 16.5852 18.473 16.9227C18.1354 17.2603 17.6776 17.4499 17.2002 17.4499H2.80046C2.32307 17.4499 1.86525 17.2603 1.52769 16.9227C1.19013 16.5852 1.00049 16.1273 1.00049 15.6499V4.85014ZM12.2503 7.73009C12.6103 7.73009 12.9703 7.73009 13.2403 7.91008L13.1503 8.81007H13.0603C12.7895 8.64197 12.4789 8.5488 12.1603 8.54007C11.7103 8.54007 11.5303 8.81007 11.5303 8.99006C11.5303 9.17006 11.7103 9.26006 12.1603 9.44005C12.7903 9.80005 13.0603 10.16 13.0603 10.61C13.0603 11.51 12.3403 12.14 11.0803 12.14C10.5403 12.14 10.0903 11.96 9.82033 11.87L10.0003 10.97H10.0903C10.4503 11.15 10.7203 11.24 11.1703 11.24C11.5303 11.24 11.8903 11.06 11.8903 10.79C11.8903 10.61 11.7103 10.52 11.2603 10.25C10.8103 10.07 10.2703 9.71005 10.2703 9.08006C10.2703 8.27008 11.1703 7.73009 12.2503 7.73009ZM15.4002 7.73009H16.3002L17.2002 12.05H16.1202L15.9402 11.42H14.5002L14.2302 12.05H13.0603L14.7702 8.09008C14.8602 7.82008 15.0402 7.82008 15.4002 7.82008V7.73009ZM9.82033 7.73009H8.65035L7.93036 12.05H9.10034L9.82033 7.73009ZM5.7704 10.7L5.6804 10.07L5.23041 8.09008C5.23041 7.82008 4.96042 7.82008 4.69042 7.73009H2.89045V7.82008L3.97043 8.27008L4.06043 8.45007L5.05042 12.05H6.40039L8.20036 7.82008H7.03038L5.8604 10.7H5.7704Z" fill="#A5B8EF"/>
<path d="M31.2084 10.0116H31.8259C31.8575 9.83329 31.8009 9.68079 31.6034 9.68079C31.4059 9.68079 31.2659 9.78245 31.2084 10.0116ZM27.7275 10.3425L27.6967 10.3375C27.605 10.3208 27.4434 10.2908 27.3017 10.3875C27.1425 10.4958 27.0975 10.6858 27.2634 10.75C27.4225 10.8108 27.6575 10.7058 27.69 10.54L27.7275 10.3425ZM39.0609 10.285C39.1125 10.12 39.0842 9.91329 39.0292 9.83995C38.8767 9.63662 38.5259 9.79745 38.4184 10.1966C38.3484 10.4575 38.5017 10.655 38.6734 10.655C38.8575 10.655 38.9717 10.5083 39.0609 10.285ZM36.1275 10.3425L36.0967 10.3375C36.005 10.3208 35.8425 10.2908 35.7017 10.3875C35.5425 10.4958 35.4975 10.6858 35.6634 10.75C35.8225 10.8108 36.0575 10.7058 36.0892 10.54L36.1275 10.3425Z" fill="#A5B8EF"/>
<path d="M36.0803 4.08046C37.6503 4.08046 39.1559 4.70412 40.2661 5.81425C41.3762 6.92437 41.9998 8.43003 41.9998 9.99998C41.9998 11.5699 41.3762 13.0756 40.2661 14.1857C39.1559 15.2958 37.6503 15.9195 36.0803 15.9195C34.7209 15.9225 33.4027 15.4527 32.3516 14.5906C33.1412 13.8323 33.723 12.8842 34.0415 11.8368H33.5495C33.2433 12.7693 32.7092 13.6107 31.9957 14.2846C31.2866 13.6103 30.7563 12.7701 30.4528 11.8398H29.9608C30.2752 12.8828 30.8507 13.8282 31.6327 14.5866C30.5858 15.445 29.2748 15.9158 27.921 15.9195C26.351 15.9195 24.8454 15.2958 23.7353 14.1857C22.6251 13.0756 22.0015 11.5699 22.0015 9.99998C22.0015 8.43003 22.6251 6.92437 23.7353 5.81425C24.8454 4.70412 26.351 4.08046 27.921 4.08046C29.3309 4.08046 30.6158 4.59042 31.6327 5.41335C30.8507 6.17173 30.2752 7.11717 29.9608 8.16013H30.4528C30.7563 7.22985 31.2866 6.38969 31.9957 5.71533C32.7092 6.3893 33.2433 7.23064 33.5495 8.16313H34.0415C33.723 7.11578 33.1412 6.16763 32.3516 5.40935C33.403 4.54705 34.7216 4.07725 36.0813 4.08046M38.0592 9.19604L37.6502 11.3859H38.2521L38.4371 10.3839C38.6051 9.762 38.8641 9.764 39.0161 9.767H39.0391L39.2011 9.19704C38.9001 9.19704 38.7221 9.30404 38.6301 9.41203L38.5761 9.19604H38.0592ZM30.3258 8.64009H29.7298L29.3179 10.7169C29.2029 11.3119 29.6538 11.3969 29.7908 11.3969C29.9456 11.4019 30.0987 11.3645 30.2338 11.2889L30.2718 10.8469C29.9288 10.8999 29.9128 10.7469 29.9438 10.5789L30.1118 9.693H30.4168L30.5238 9.22004H30.2038L30.3258 8.64009ZM31.4937 9.19004C30.5608 9.19004 30.4178 10.087 30.3898 10.267L30.3868 10.281C30.3638 10.4189 30.3488 11.3889 31.3797 11.3889C31.6317 11.3959 31.9977 11.3659 32.1436 11.2889L32.2346 10.8389C32.0125 10.8755 31.7878 10.8932 31.5627 10.8919H31.5427C31.3047 10.8919 30.9467 10.8929 31.0127 10.4119H32.3106C32.3806 10.06 32.5406 9.19004 31.4937 9.19004ZM29.3029 9.26504C29.0559 9.17105 28.8559 9.17705 28.7529 9.18005H28.7099C28.6089 9.18005 27.913 9.18005 27.805 9.7C27.721 10.105 27.869 10.272 28.011 10.334C28.161 10.3989 28.268 10.4599 28.3589 10.5119C28.4056 10.5399 28.4503 10.5646 28.4929 10.5859C28.6429 10.6609 28.6159 10.9139 28.4159 10.9139L28.3439 10.9169C28.19 10.9259 27.876 10.9429 27.63 10.8609L27.546 11.3109C27.821 11.3879 28.042 11.3879 28.248 11.3879H28.271C28.4559 11.3899 29.1079 11.3959 29.2019 10.7689C29.2509 10.4489 29.1109 10.303 28.9959 10.235C28.8594 10.1458 28.7167 10.0666 28.5689 9.99798C28.4469 9.94398 28.3549 9.738 28.5759 9.67801C28.7139 9.66201 28.9959 9.66201 29.1639 9.708L29.3029 9.26504ZM25.7982 8.74508H24.8202L24.0953 10.349L23.9803 8.74508H23.0264L22.5144 11.3879H23.1104L23.4763 9.47802L23.6363 11.3879H24.2023L25.0342 9.52402L24.6832 11.3879H25.3002L25.7982 8.74508ZM25.8662 9.731L26.0101 9.713C26.1901 9.69 26.4511 9.65601 26.6071 9.66201L26.6671 9.66301C26.8541 9.66701 27.0361 9.67101 26.9741 9.96698C26.9534 9.96832 26.9201 9.96832 26.8741 9.96698C26.5611 9.95698 25.7302 9.93198 25.5842 10.7309C25.5152 11.1809 25.9041 11.4109 26.2101 11.3949C26.5151 11.3799 26.6001 11.3419 26.7061 11.2649L26.7831 11.3879H27.34L27.577 10.196C27.638 9.89899 27.737 9.18105 26.7371 9.18105L26.6411 9.18405C26.4791 9.18805 26.2811 9.19404 25.9581 9.25704L25.8662 9.731ZM35.1514 9.25004C35.3504 9.25004 35.4564 9.26504 35.6094 9.35603L35.9993 8.96706C35.8463 8.79908 35.6704 8.63409 35.1824 8.61609C34.7694 8.60009 34.0625 8.90107 33.8385 9.723C33.5325 10.8379 34.2045 11.3879 34.8234 11.3879C35.1514 11.3879 35.3504 11.3419 35.5484 11.2499L35.3724 10.7159C34.7624 10.9219 34.3265 10.6089 34.4265 9.97498C34.5094 9.43903 34.9524 9.24904 35.1514 9.24904M40.603 9.36803C40.523 9.28404 40.431 9.18805 40.221 9.18805H40.167C39.839 9.18405 39.3661 9.17905 39.0911 10.119C38.8971 10.7819 39.2901 11.3869 39.717 11.3869C39.916 11.3789 40.114 11.2949 40.237 11.2109L40.313 11.3869H40.9539L41.4739 8.60709H40.8469L40.6869 9.44702C40.6574 9.42201 40.6294 9.3953 40.603 9.36703M35.9453 9.729L36.0893 9.711C36.2693 9.688 36.5293 9.65401 36.6863 9.66001L36.7463 9.66101C36.9333 9.66501 37.1152 9.66901 37.0522 9.96498C37.0322 9.96632 36.9989 9.96632 36.9522 9.96498C36.6403 9.95498 35.8093 9.92999 35.6624 10.7289C35.5944 11.1789 35.9833 11.4089 36.2893 11.3929C36.5943 11.3779 36.6783 11.3399 36.7853 11.2629L36.8623 11.3859H37.4192L37.6562 10.194C37.7162 9.89699 37.8162 9.17905 36.8163 9.17905L36.7203 9.18205C36.5583 9.18605 36.3603 9.19205 36.0373 9.25504L35.9453 9.729ZM32.7326 9.21704L32.3276 11.3859H32.9236L33.1066 10.3929C33.2715 9.783 33.5325 9.787 33.6825 9.789H33.7095L33.8625 9.21704C33.5655 9.21704 33.3895 9.32403 33.2975 9.43103L33.2445 9.21704H32.7326Z" fill="#A5B8EF"/>
</svg>
