<svg width="38" height="38" viewBox="0 0 38 38" fill="none" xmlns="http://www.w3.org/2000/svg">
<path fill-rule="evenodd" clip-rule="evenodd" d="M18.8954 0C19.3297 0 20.1519 0.0465401 20.7104 0.108594C21.2767 0.170647 22.1066 0.294754 22.5565 0.380078C23.0064 0.465401 23.751 0.643805 24.2242 0.775669C24.6974 0.907532 25.3955 1.14023 25.7755 1.28761C26.1556 1.42723 26.9313 1.77628 27.482 2.04777C28.0327 2.31925 28.8549 2.78465 29.3048 3.0794C29.7547 3.37416 30.414 3.84732 30.7786 4.13431C31.1432 4.42131 31.6551 4.8712 32.423 5.61584L30.1969 7.81098L29.5918 7.27577C29.2661 6.98102 28.7076 6.52337 28.3508 6.2674C28.0017 6.00367 27.3812 5.59257 26.9778 5.35987C26.5745 5.11941 25.8919 4.77036 25.4653 4.5842C25.0387 4.39804 24.325 4.1188 23.8752 3.97142C23.4253 3.82405 22.6418 3.62237 22.1299 3.52154C21.618 3.41294 20.7104 3.29659 20.1132 3.25005C19.353 3.19575 18.7014 3.19575 17.9413 3.25005C17.344 3.29659 16.421 3.4207 15.8858 3.52929C15.3506 3.63013 14.4973 3.86283 13.9854 4.03348C13.4734 4.20412 12.628 4.55317 12.1005 4.80914C11.5808 5.05736 10.7586 5.53052 10.2777 5.8563C9.80453 6.18208 9.14521 6.67075 8.82719 6.93448C8.50916 7.1982 7.98171 7.69463 7.66368 8.02817C7.34566 8.36946 6.84923 8.9357 6.56224 9.30027C6.283 9.66483 5.87965 10.2388 5.66246 10.5801C5.45303 10.9214 5.10398 11.5497 4.89455 11.9763C4.67736 12.4029 4.37485 13.101 4.21196 13.5277C4.05683 13.9543 3.82413 14.7067 3.70002 15.1953C3.58367 15.684 3.42853 16.4985 3.35872 17.0027C3.29667 17.4991 3.24237 18.3989 3.24237 18.9961C3.24237 19.5934 3.29667 20.4932 3.35872 20.9973C3.42853 21.4938 3.58367 22.3082 3.70002 22.7969C3.82413 23.2856 4.05683 24.038 4.21196 24.4646C4.37485 24.8912 4.67736 25.5893 4.89455 26.0159C5.10398 26.4425 5.45303 27.0708 5.66246 27.4121C5.87965 27.7534 6.283 28.3274 6.56999 28.692C6.84923 29.0565 7.32239 29.6073 7.6249 29.9253C7.91966 30.2356 8.44711 30.732 8.7884 31.019C9.1297 31.306 9.80453 31.8102 10.2777 32.1359C10.7586 32.4617 11.5808 32.9349 12.1005 33.1831C12.628 33.4391 13.4812 33.7881 14.0009 33.9588C14.5284 34.1372 15.3816 34.3621 15.9013 34.4707C16.4287 34.5715 17.3363 34.6957 17.918 34.7422C18.6549 34.7965 19.3297 34.7965 20.0899 34.7422C20.7027 34.6957 21.618 34.5715 22.1299 34.4707C22.6418 34.3699 23.4253 34.1682 23.8752 34.0208C24.325 33.8734 25.0387 33.5942 25.4653 33.408C25.8919 33.2219 26.5745 32.8728 26.9778 32.6324C27.3812 32.3997 28.0017 31.9886 28.3508 31.7248C28.7076 31.4689 29.2661 31.0112 30.1969 30.1813L32.423 32.3764L31.9266 32.8573C31.6551 33.121 31.1432 33.5709 30.7786 33.8579C30.414 34.1372 29.7547 34.6181 29.3048 34.9128C28.8549 35.2076 28.0327 35.673 27.482 35.9445C26.9313 36.216 26.1479 36.5573 25.7523 36.7124C25.3644 36.8675 24.6663 37.1002 24.2009 37.2243C23.7433 37.3562 23.0064 37.5268 22.5565 37.6122C22.1066 37.6975 21.2767 37.8216 20.7104 37.8837C20.1519 37.9457 19.3918 38 19.0272 38C18.6627 38 17.9025 37.9457 17.3363 37.8837C16.7778 37.8216 15.9323 37.6897 15.4592 37.6044C14.986 37.5191 14.2026 37.3252 13.7139 37.1856C13.2252 37.0382 12.4185 36.7589 11.9299 36.565C11.4412 36.3711 10.6733 36.0143 10.2234 35.7816C9.7735 35.5411 9.0211 35.0912 8.5557 34.781C8.08255 34.4707 7.40771 33.9743 7.04315 33.6795C6.68634 33.3925 6.05805 32.8185 5.64695 32.4152C5.2436 32.0118 4.63858 31.3448 4.3128 30.9414C3.98702 30.5381 3.49059 29.8555 3.20359 29.4289C2.91659 29.0022 2.3969 28.0637 2.04009 27.3346C1.67552 26.5977 1.23339 25.5505 1.03948 24.9688C0.853316 24.3948 0.620615 23.5803 0.535292 23.1615C0.442211 22.7504 0.302591 21.9282 0.217267 21.3386C0.116431 20.625 0.0621338 19.8649 0.0621338 19.0349C0.0621338 18.2282 0.116431 17.4138 0.209511 16.7079C0.294834 16.1106 0.434455 15.2729 0.527535 14.8463C0.620615 14.4197 0.853316 13.5975 1.03948 13.0235C1.23339 12.4417 1.67552 11.3946 2.04009 10.6577C2.3969 9.93631 2.91659 8.99 3.20359 8.56338C3.49059 8.13676 3.9715 7.46969 4.28177 7.08961C4.59204 6.70178 5.15052 6.07348 5.53835 5.69341C5.91843 5.30557 6.53897 4.73158 6.9268 4.4058C7.30688 4.08777 8.02825 3.56032 8.51692 3.23454C9.00559 2.90876 9.81229 2.4356 10.301 2.17963C10.7896 1.92366 11.6118 1.55134 12.1238 1.34966C12.6357 1.14799 13.4734 0.868749 13.9854 0.729128C14.4973 0.589508 15.2497 0.418861 15.6531 0.349051C16.0564 0.271484 16.77 0.170647 17.2432 0.11635C17.7163 0.0620535 18.4532 0.00775669 18.8876 0L18.8954 0ZM31.6396 14.2645H34.8198V17.4448H38.0001V20.5475H34.8198V23.7277H31.6396V20.5475H28.5369V17.4448H31.6396V14.2645ZM9.53305 11.0843H12.7133V23.7277H14.2646V26.9079H7.98171V23.7277H9.53305V15.8159H7.98171V12.7132H9.53305V11.0843ZM21.362 11.0921C22.1687 11.0921 22.7892 11.1231 23.146 11.2007C23.4485 11.2627 23.9682 11.4489 24.3095 11.6195C24.6508 11.7902 25.1162 12.1004 25.3489 12.3021C25.5739 12.5038 25.9384 12.9382 26.1479 13.2562C26.3573 13.5742 26.6055 14.0629 26.6908 14.3421C26.7762 14.6214 26.8615 15.1643 26.8925 15.5444C26.9158 15.971 26.8925 16.4442 26.8305 16.7467C26.7839 17.0259 26.6365 17.4758 26.5047 17.7551C26.3806 18.0343 26.1556 18.4221 25.7445 18.9961L26.0082 19.3607C26.1556 19.5701 26.3806 19.958 26.5047 20.2372C26.6365 20.5164 26.7839 20.9663 26.8305 21.2456C26.8925 21.5481 26.9158 22.0212 26.8925 22.4478C26.8615 22.8279 26.7762 23.3709 26.6908 23.6501C26.6055 23.9294 26.3573 24.418 26.1479 24.7361C25.9384 25.0541 25.5739 25.4885 25.3489 25.6901C25.1162 25.8918 24.6508 26.2021 24.3095 26.3727C23.9682 26.5434 23.4485 26.7295 23.146 26.7916C22.8047 26.8614 22.1609 26.9079 21.4008 26.9079C20.6329 26.9079 20.0046 26.8614 19.6555 26.7916C19.353 26.7295 18.8643 26.5589 18.5696 26.4115C18.2671 26.2719 17.8327 26.0004 17.6 25.8065C17.3673 25.6203 17.0493 25.2868 16.8864 25.0774C16.7312 24.8679 16.4985 24.4801 16.3667 24.2086C16.2348 23.9449 16.0719 23.5105 16.0099 23.239C15.9478 22.9753 15.8935 22.4944 15.8935 22.1764C15.8935 21.8583 15.9556 21.3309 16.0409 21.0129C16.1185 20.6948 16.2658 20.276 16.3589 20.0821C16.452 19.8881 16.6537 19.5701 17.057 18.9961L16.7933 18.6238C16.6537 18.4221 16.452 18.1041 16.3589 17.9102C16.2658 17.7163 16.1185 17.2974 16.0409 16.9794C15.9556 16.6614 15.8935 16.1339 15.8935 15.8159C15.8935 15.4979 15.9478 15.0247 16.0099 14.7687C16.0642 14.5128 16.196 14.1249 16.2891 13.9155C16.3822 13.6983 16.5994 13.3182 16.7855 13.0623C16.964 12.8063 17.313 12.4262 17.569 12.2168C17.8172 12.0073 18.2671 11.7204 18.5696 11.573C18.8643 11.4334 19.3375 11.2705 19.6167 11.2084C19.927 11.1386 20.5941 11.0921 21.362 11.0921ZM19.353 14.9083C19.1513 15.1643 19.1048 15.2962 19.0815 15.7228C19.0505 16.1727 19.0738 16.289 19.2522 16.6071C19.384 16.8475 19.578 17.0492 19.7874 17.1733C20.1054 17.3517 20.1752 17.3672 21.4008 17.3672C22.6031 17.3672 22.7039 17.3517 22.9909 17.1811C23.1615 17.0802 23.3865 16.863 23.4951 16.7001C23.5959 16.5373 23.7045 16.258 23.7355 16.0874C23.7588 15.9167 23.751 15.6375 23.72 15.4668C23.6812 15.2962 23.5339 15.0169 23.3942 14.8541C23.2624 14.6834 23.0064 14.4817 22.8358 14.4042C22.5875 14.2956 22.3161 14.2645 21.4008 14.2645C20.3846 14.2645 20.245 14.2801 19.9348 14.4352C19.7408 14.536 19.4771 14.7455 19.353 14.9083ZM19.2522 21.3774C19.0738 21.7032 19.0505 21.8196 19.0815 22.2694C19.1048 22.6961 19.1513 22.8279 19.353 23.0839C19.4771 23.2468 19.7408 23.4562 19.9348 23.5571C20.245 23.7122 20.3846 23.7277 21.4008 23.7277C22.3161 23.7277 22.5875 23.6967 22.8358 23.5881C23.0064 23.5105 23.2624 23.3088 23.3942 23.1382C23.5339 22.9753 23.6812 22.6961 23.72 22.5254C23.751 22.3548 23.7588 22.0755 23.7355 21.9049C23.7045 21.7342 23.5959 21.455 23.4951 21.2921C23.3865 21.1292 23.1615 20.912 22.9909 20.8112C22.7039 20.6405 22.6031 20.625 21.4008 20.625C20.1752 20.625 20.1054 20.6328 19.7874 20.8189C19.578 20.9431 19.384 21.1447 19.2522 21.3774Z" fill="#D2DCF7"/>
</svg>
