<svg width="67" height="38" viewBox="0 0 67 38" fill="none" xmlns="http://www.w3.org/2000/svg">
<g clip-path="url(#clip0_429_4318)">
<path d="M-0.543213 0.00439453H66.4998V37.9955H-0.543213V0.00439453Z" fill="#20082E"/>
<path d="M22.8594 11.5947C23.1187 11.5947 23.3421 11.8182 23.3421 12.0461V22.2813C23.3421 22.5719 23.1812 22.8624 22.9578 23.0546C21.0269 24.6949 18.0681 25.6603 14.9752 25.6603C8.02505 25.6603 3.39014 21.0254 3.39014 14.0753C3.39014 7.12514 8.02505 2.49023 14.9752 2.49023C17.3574 2.49023 19.8648 3.19642 21.7331 4.3585C21.9923 4.48812 22.0862 4.74288 22.0236 4.93954L20.4146 9.66831C20.3163 9.89179 20.0928 9.99012 19.8023 9.92754C18.4838 9.22136 16.7764 8.80122 15.1674 8.80122C12.2085 8.80122 10.2106 10.9242 10.2106 14.0797C10.2106 17.2352 12.2041 19.4208 15.1674 19.4208C16.3563 19.4208 17.1608 19.1974 17.5183 18.8085V16.9402H14.5595C14.269 16.9402 14.0768 16.8106 14.0455 16.5872L13.6254 12.1444C13.5941 11.8226 13.7863 11.5991 14.1394 11.5991H22.8594V11.5947ZM43.0707 23.2468C43.169 23.4747 43.0394 23.6982 42.7802 23.8278C40.9119 24.9854 38.4045 25.6961 36.0222 25.6961C29.3939 25.6961 24.9512 21.0612 24.9512 14.111C24.9512 7.1609 29.3939 2.52599 36.0222 2.52599C38.4045 2.52599 40.9119 3.23218 42.7802 4.39426C43.0394 4.52387 43.1645 4.74735 43.0707 4.9753L40.9477 9.4493C40.818 9.73982 40.5946 9.83368 40.3353 9.70854C39.1464 9.03364 37.9843 8.80569 36.6033 8.80569C33.707 8.80569 31.7762 10.9287 31.7762 14.1155C31.7762 17.3023 33.707 19.4253 36.6033 19.4253C37.9888 19.4253 39.1464 19.2018 40.3353 18.5225C40.5946 18.3928 40.818 18.4912 40.9477 18.7817L43.0707 23.2557V23.2468ZM55.0401 3.00423C59.2549 3.00423 62.0573 5.51611 62.0573 9.27946C62.0573 11.5947 60.9309 13.302 59.1923 13.816C61.2215 14.33 62.54 16.2609 62.54 18.9337C62.54 22.697 59.7421 25.2089 55.5586 25.2089H45.3546C45.0998 25.2089 44.9032 24.9854 44.9032 24.7575V3.48694C44.9032 3.26346 45.0954 3.00423 45.3546 3.00423H55.0446H55.0401ZM53.5607 11.7243C54.5261 11.7243 55.1697 11.1433 55.1697 10.2449C55.1697 9.3465 54.5261 8.76546 53.5607 8.76546H51.5315V11.7243H53.5607ZM54.1373 19.4477C55.0714 19.4477 55.715 18.8353 55.715 17.9012C55.715 16.9671 55.0714 16.3547 54.1373 16.3547H51.5315V19.4432H54.1373V19.4477ZM14.8858 34.5502C14.9081 34.5904 14.8858 34.6485 14.8366 34.6888C14.4031 34.9614 13.8042 35.1491 13.3483 35.1491C11.8912 35.1491 10.9258 34.215 10.9258 32.816C10.9258 31.4171 11.8912 30.4829 13.3483 30.4829C13.8086 30.4829 14.4031 30.6662 14.8366 30.9433C14.8858 30.9835 14.9081 31.0416 14.8858 31.0819L14.421 32.0652C14.3897 32.1277 14.3316 32.1545 14.2779 32.1143C14.0768 31.9713 13.7729 31.873 13.5047 31.873C12.9192 31.873 12.5303 32.2529 12.5303 32.8205C12.5303 33.3881 12.9147 33.7681 13.5047 33.7681C13.7684 33.7681 14.0768 33.6697 14.2779 33.5267C14.336 33.4865 14.3897 33.5088 14.421 33.5759L14.8858 34.5592V34.5502ZM19.0693 34.5681C19.0871 34.6262 19.0693 34.6575 19.0112 34.6888C18.5821 34.9704 17.9653 35.1402 17.344 35.1402C15.9182 35.1402 14.9707 34.2061 14.9707 32.816C14.9707 31.426 15.9048 30.4829 17.3038 30.4829C18.7028 30.4829 19.4268 31.3456 19.4268 32.8071C19.4268 32.9278 19.4179 33.0485 19.3955 33.1691C19.3866 33.2317 19.3464 33.2675 19.2749 33.2675H16.6915C16.6915 33.2675 16.6915 33.7725 17.3664 33.7725C17.7776 33.7725 18.2335 33.6742 18.6 33.5088C18.6581 33.4865 18.7028 33.5178 18.7206 33.5714L19.0648 34.5681H19.0693ZM17.8312 32.4182C17.8312 32.0652 17.6122 31.8327 17.2904 31.8327C16.9284 31.8327 16.687 32.0652 16.687 32.4182H17.8312ZM22.4304 30.5902C22.4929 30.5902 22.5421 30.6394 22.5421 30.7019V31.7478C22.5421 31.8104 22.4929 31.8596 22.4304 31.8596H22.2203C21.9164 31.8596 21.6393 31.9981 21.5365 32.1992V34.8944C21.5365 34.9569 21.4784 35.0151 21.4158 35.0151H19.9989C19.9364 35.0151 19.8783 34.9569 19.8783 34.8944V30.7109C19.8783 30.6528 19.9364 30.5991 19.9989 30.5991H20.9063C20.9688 30.5991 21.0091 30.6573 21.0359 30.7198L21.1565 31.0729C21.3979 30.7735 21.7912 30.5902 22.2203 30.5902H22.4304ZM25.6171 30.5902C25.6887 30.5902 25.7378 30.6394 25.7378 30.7019L25.6484 31.4841C25.6395 31.5467 25.5903 31.6048 25.5278 31.6048H25.0138V34.8944C25.0138 34.9569 24.9557 35.0151 24.8931 35.0151H23.4762C23.4137 35.0151 23.3556 34.9569 23.3556 34.8944V31.6048H22.8952C22.8371 31.6048 22.7835 31.5556 22.7835 31.4931V30.7109C22.7835 30.6394 22.8416 30.5902 22.8952 30.5902H23.3556V29.7142C23.3556 29.6561 23.4137 29.6114 23.4762 29.6024L24.8931 29.4639C24.9557 29.4549 25.0138 29.522 25.0138 29.5756V30.5902H25.6171ZM26.7122 35.1313C26.2876 35.1313 26.006 34.8676 26.006 34.4698C26.006 34.072 26.2876 33.7949 26.7122 33.7949C27.1368 33.7949 27.4184 34.0675 27.4184 34.4698C27.4184 34.872 27.1368 35.1313 26.7122 35.1313ZM30.6856 34.4385C30.556 34.6977 30.1716 34.8631 29.7202 34.8631C28.5447 34.8631 27.7625 34.0183 27.7625 32.7445C27.7625 31.3187 28.4866 30.474 29.7202 30.474C30.3414 30.474 30.8331 30.6438 31.0387 30.9344L31.1817 30.7109C31.2309 30.6394 31.3024 30.5902 31.3694 30.5902H32.2231C32.2946 30.5902 32.3438 30.6394 32.3438 30.7109V34.6039C32.3438 35.8196 31.2398 36.633 29.8721 36.633C29.0766 36.633 28.3659 36.4498 27.9726 36.128C27.9234 36.0877 27.91 36.0296 27.9234 35.9894L28.3346 34.9927C28.357 34.9346 28.4061 34.9123 28.4553 34.9435C28.7995 35.2251 29.3313 35.395 29.8721 35.395C30.3772 35.395 30.6856 35.1268 30.6856 34.6709V34.4385ZM30.6856 32.3467C30.6856 32.3467 30.5649 31.9847 30.1314 31.9847C29.7291 31.9847 29.4967 32.2663 29.4967 32.749C29.4967 33.2317 29.7291 33.5222 30.1314 33.5222C30.5649 33.5222 30.6856 33.1602 30.6856 33.1602V32.3467ZM36.7508 34.5502C36.7731 34.5904 36.7508 34.6485 36.7016 34.6888C36.268 34.9614 35.6691 35.1491 35.2132 35.1491C33.7562 35.1491 32.7907 34.215 32.7907 32.816C32.7907 31.4171 33.7562 30.4829 35.2132 30.4829C35.6736 30.4829 36.268 30.6662 36.7016 30.9433C36.7508 30.9835 36.7731 31.0416 36.7508 31.0819L36.2859 32.0652C36.2546 32.1277 36.1965 32.1545 36.1429 32.1143C35.9418 31.9713 35.6334 31.873 35.3697 31.873C34.7842 31.873 34.3953 32.2529 34.3953 32.8205C34.3953 33.3881 34.7797 33.7681 35.3697 33.7681C35.6334 33.7681 35.9418 33.6697 36.1429 33.5267C36.201 33.4865 36.2546 33.5088 36.2859 33.5759L36.7508 34.5592V34.5502ZM38.8693 30.7824C39.1107 30.5902 39.4727 30.4785 39.8526 30.4785C41.1264 30.4785 41.9756 31.4126 41.9756 32.8026C41.9756 34.1927 41.122 35.1357 39.8526 35.1357C39.3118 35.1357 38.7978 34.9257 38.4939 34.6039L38.3732 34.8944C38.3419 34.9659 38.3017 35.0151 38.2436 35.0151H37.3318C37.2692 35.0151 37.2111 34.9569 37.2111 34.8944V29.294C37.2111 29.2359 37.2692 29.1823 37.3318 29.1823H38.7486C38.8112 29.1823 38.8693 29.2404 38.8693 29.294V30.7824ZM38.8693 33.3211C38.9676 33.5848 39.2224 33.7636 39.504 33.7636C39.9465 33.7636 40.2459 33.3792 40.2459 32.7982C40.2459 32.2171 39.9465 31.864 39.504 31.864C39.2224 31.864 38.9632 32.0428 38.8693 32.3065V33.3211ZM43.026 35.1313C42.6014 35.1313 42.3198 34.8676 42.3198 34.4698C42.3198 34.072 42.6014 33.7949 43.026 33.7949C43.4506 33.7949 43.7322 34.0675 43.7322 34.4698C43.7322 34.872 43.4506 35.1313 43.026 35.1313ZM48.0408 34.5502C48.0632 34.5904 48.0408 34.6485 47.9916 34.6888C47.5581 34.9614 46.9592 35.1491 46.5033 35.1491C45.0462 35.1491 44.0808 34.215 44.0808 32.816C44.0808 31.4171 45.0462 30.4829 46.5033 30.4829C46.9636 30.4829 47.5581 30.6662 47.9916 30.9433C48.0408 30.9835 48.0632 31.0416 48.0408 31.0819L47.576 32.0652C47.5447 32.1277 47.4866 32.1545 47.4329 32.1143C47.2318 31.9713 46.9279 31.873 46.6597 31.873C46.0742 31.873 45.6854 32.2529 45.6854 32.8205C45.6854 33.3881 46.0697 33.7681 46.6597 33.7681C46.9279 33.7681 47.2318 33.6697 47.4329 33.5267C47.4911 33.4865 47.5447 33.5088 47.576 33.5759L48.0408 34.5592V34.5502ZM55.1027 30.5902C55.1652 30.5902 55.2055 30.6483 55.1831 30.7019L53.8736 34.9033C53.8557 34.9614 53.7931 35.0151 53.7305 35.0151H52.4835C52.421 35.0151 52.345 34.9569 52.3226 34.9033L51.7014 32.7624L51.0801 34.9033C51.0577 34.9614 50.9818 35.0151 50.9192 35.0151H49.6722C49.6096 35.0151 49.5426 34.9569 49.5292 34.9033L48.2196 30.7019C48.1972 30.6438 48.2375 30.5902 48.3 30.5902H49.9269C49.9985 30.5902 50.0655 30.6394 50.0789 30.7019L50.4991 32.4629L50.9326 30.7019C50.9505 30.6215 51.022 30.5902 51.0756 30.5902H52.3316C52.4522 30.5902 52.4612 30.6215 52.4746 30.7019L52.9081 32.4629L53.3283 30.7019C53.3461 30.6394 53.4087 30.5902 53.4802 30.5902H55.1071H55.1027Z" fill="#D2DCF7"/>
</g>
<defs>
<clipPath id="clip0_429_4318">
<rect width="66.5" height="38" fill="white"/>
</clipPath>
</defs>
</svg>
